<svg width="32" height="32" viewBox="0 0 32 32" fill="none" xmlns="http://www.w3.org/2000/svg">
<rect width="32" height="32" rx="8" fill="#FFDD2C" style="fill:#FFDD2C;fill:color(display-p3 1.0000 0.8667 0.1725);fill-opacity:1;"/>
<path d="M6.98063 14.0652C6.5026 14.0652 6.07424 13.9876 5.69554 13.8324C5.31684 13.6772 5.01264 13.4475 4.78294 13.1433C4.55945 12.8391 4.44149 12.4728 4.42908 12.0444H6.1239C6.14874 12.2865 6.23255 12.4728 6.37534 12.6032C6.51812 12.7273 6.70437 12.7894 6.93407 12.7894C7.16998 12.7894 7.35623 12.7366 7.4928 12.6311C7.62938 12.5194 7.69767 12.3673 7.69767 12.1748C7.69767 12.0134 7.6418 11.8799 7.53005 11.7744C7.42452 11.6688 7.29104 11.5819 7.12963 11.5136C6.97442 11.4453 6.75093 11.3677 6.45915 11.2808C6.03699 11.1505 5.69244 11.0201 5.42549 10.8897C5.15854 10.7593 4.92883 10.5669 4.73638 10.3124C4.54393 10.0578 4.4477 9.72568 4.4477 9.31594C4.4477 8.70754 4.66809 8.23262 5.10887 7.89117C5.54965 7.54351 6.1239 7.36968 6.83164 7.36968C7.55178 7.36968 8.13225 7.54351 8.57303 7.89117C9.0138 8.23262 9.24971 8.71064 9.28076 9.32525H7.55799C7.54557 9.11418 7.46797 8.94966 7.32518 8.8317C7.1824 8.70754 6.99926 8.64546 6.77576 8.64546C6.58331 8.64546 6.4281 8.69823 6.31015 8.80377C6.19219 8.9031 6.13322 9.04899 6.13322 9.24144C6.13322 9.45252 6.23255 9.61704 6.43121 9.73499C6.62987 9.85295 6.94028 9.98021 7.36243 10.1168C7.78459 10.2596 8.12604 10.3962 8.38678 10.5265C8.65373 10.6569 8.88343 10.8463 9.07589 11.0946C9.26834 11.3429 9.36457 11.6626 9.36457 12.0537C9.36457 12.4262 9.26834 12.7646 9.07589 13.0688C8.88964 13.373 8.61648 13.6151 8.25641 13.7951C7.89634 13.9752 7.47108 14.0652 6.98063 14.0652ZM13.6038 8.74789C14.2122 8.74789 14.6965 8.94656 15.0565 9.34388C15.4228 9.73499 15.606 10.2751 15.606 10.9642V14H14.0229V11.1784C14.0229 10.8307 13.9329 10.5607 13.7528 10.3682C13.5728 10.1758 13.3307 10.0795 13.0265 10.0795C12.7223 10.0795 12.4801 10.1758 12.3001 10.3682C12.1201 10.5607 12.0301 10.8307 12.0301 11.1784V14H10.4377V8.80377H12.0301V9.49287C12.1915 9.26317 12.4087 9.08313 12.6819 8.95276C12.9551 8.81618 13.2624 8.74789 13.6038 8.74789ZM16.489 11.3926C16.489 10.8587 16.5883 10.39 16.787 9.98642C16.9919 9.58289 17.2681 9.27248 17.6158 9.0552C17.9635 8.83791 18.3515 8.72927 18.7798 8.72927C19.1461 8.72927 19.4658 8.80377 19.739 8.95276C20.0184 9.10176 20.2325 9.29732 20.3815 9.53943V8.80377H21.9739V14H20.3815V13.2643C20.2263 13.5065 20.009 13.702 19.7297 13.851C19.4565 14 19.1368 14.0745 18.7705 14.0745C18.3484 14.0745 17.9635 13.9659 17.6158 13.7486C17.2681 13.5251 16.9919 13.2116 16.787 12.808C16.5883 12.3983 16.489 11.9265 16.489 11.3926ZM20.3815 11.4019C20.3815 11.0046 20.2698 10.691 20.0463 10.4613C19.829 10.2316 19.5621 10.1168 19.2454 10.1168C18.9288 10.1168 18.6588 10.2316 18.4353 10.4613C18.218 10.6848 18.1093 10.9952 18.1093 11.3926C18.1093 11.7899 18.218 12.1065 18.4353 12.3424C18.6588 12.5721 18.9288 12.687 19.2454 12.687C19.5621 12.687 19.829 12.5721 20.0463 12.3424C20.2698 12.1127 20.3815 11.7992 20.3815 11.4019ZM24.8115 9.53943C24.9667 9.29732 25.1809 9.10176 25.454 8.95276C25.7272 8.80377 26.0469 8.72927 26.4132 8.72927C26.8415 8.72927 27.2295 8.83791 27.5772 9.0552C27.9249 9.27248 28.198 9.58289 28.3967 9.98642C28.6016 10.39 28.704 10.8587 28.704 11.3926C28.704 11.9265 28.6016 12.3983 28.3967 12.808C28.198 13.2116 27.9249 13.5251 27.5772 13.7486C27.2295 13.9659 26.8415 14.0745 26.4132 14.0745C26.0531 14.0745 25.7334 14 25.454 13.851C25.1809 13.702 24.9667 13.5096 24.8115 13.2736V16.4771H23.2191V8.80377H24.8115V9.53943ZM27.0837 11.3926C27.0837 10.9952 26.9719 10.6848 26.7484 10.4613C26.5311 10.2316 26.2611 10.1168 25.9383 10.1168C25.6216 10.1168 25.3516 10.2316 25.1281 10.4613C24.9108 10.691 24.8022 11.0046 24.8022 11.4019C24.8022 11.7992 24.9108 12.1127 25.1281 12.3424C25.3516 12.5721 25.6216 12.687 25.9383 12.687C26.2549 12.687 26.5249 12.5721 26.7484 12.3424C26.9719 12.1065 27.0837 11.7899 27.0837 11.3926Z" fill="white" style="fill:white;fill-opacity:1;"/>
<path d="M6.03111 22.7221C6.03111 22.0764 6.17079 21.5022 6.45016 20.9993C6.72953 20.4903 7.11754 20.096 7.61419 19.8167C8.11705 19.5311 8.6851 19.3883 9.31833 19.3883C10.0944 19.3883 10.7586 19.5932 11.3112 20.0029C11.8637 20.4127 12.2331 20.9714 12.4193 21.6791H10.6686C10.5382 21.406 10.352 21.198 10.1099 21.0552C9.87396 20.9124 9.60391 20.841 9.29971 20.841C8.80926 20.841 8.41194 21.0117 8.10774 21.3532C7.80354 21.6946 7.65144 22.1509 7.65144 22.7221C7.65144 23.2932 7.80354 23.7495 8.10774 24.091C8.41194 24.4324 8.80926 24.6032 9.29971 24.6032C9.60391 24.6032 9.87396 24.5318 10.1099 24.389C10.352 24.2462 10.5382 24.0382 10.6686 23.7651H12.4193C12.2331 24.4728 11.8637 25.0315 11.3112 25.4413C10.7586 25.8448 10.0944 26.0466 9.31833 26.0466C8.6851 26.0466 8.11705 25.9069 7.61419 25.6275C7.11754 25.3419 6.72953 24.9477 6.45016 24.4449C6.17079 23.942 6.03111 23.3677 6.03111 22.7221ZM13.171 23.3926C13.171 22.8587 13.2703 22.39 13.469 21.9864C13.6738 21.5829 13.9501 21.2725 14.2978 21.0552C14.6454 20.8379 15.0334 20.7293 15.4618 20.7293C15.8281 20.7293 16.1478 20.8038 16.421 20.9528C16.7003 21.1018 16.9145 21.2973 17.0635 21.5394V20.8038H18.6559V26H17.0635V25.2643C16.9083 25.5065 16.691 25.702 16.4116 25.851C16.1385 26 15.8188 26.0745 15.4525 26.0745C15.0303 26.0745 14.6454 25.9659 14.2978 25.7486C13.9501 25.5251 13.6738 25.2116 13.469 24.808C13.2703 24.3983 13.171 23.9265 13.171 23.3926ZM17.0635 23.4019C17.0635 23.0046 16.9518 22.691 16.7283 22.4613C16.511 22.2316 16.244 22.1168 15.9274 22.1168C15.6108 22.1168 15.3407 22.2316 15.1172 22.4613C14.9 22.6848 14.7913 22.9952 14.7913 23.3926C14.7913 23.7899 14.9 24.1065 15.1172 24.3424C15.3407 24.5721 15.6108 24.687 15.9274 24.687C16.244 24.687 16.511 24.5721 16.7283 24.3424C16.9518 24.1127 17.0635 23.7992 17.0635 23.4019ZM21.4934 21.6698C21.6797 21.3842 21.9125 21.1607 22.1919 20.9993C22.4712 20.8317 22.7816 20.7479 23.1231 20.7479V22.4334H22.6854C22.2881 22.4334 21.9901 22.5203 21.7914 22.6942C21.5928 22.8618 21.4934 23.1598 21.4934 23.5881V26H19.901V20.8038H21.4934V21.6698ZM26.8734 24.6497V26H26.0633C25.4859 26 25.0358 25.8603 24.713 25.5809C24.3902 25.2954 24.2288 24.8329 24.2288 24.1934V22.1261H23.5955V20.8038H24.2288V19.5373H25.8212V20.8038H26.8641V22.1261H25.8212V24.212C25.8212 24.3673 25.8584 24.479 25.9329 24.5473C26.0074 24.6156 26.1316 24.6497 26.3054 24.6497H26.8734Z" fill="#198C06" style="fill:#198C06;fill:color(display-p3 0.0975 0.5499 0.0238);fill-opacity:1;"/>
</svg>
