<svg width="32" height="32" viewBox="0 0 32 32" fill="none" xmlns="http://www.w3.org/2000/svg">
<rect width="32" height="32" rx="8" fill="#FFDD2C" style="fill:#FFDD2C;fill:color(display-p3 1.0000 0.8667 0.1725);fill-opacity:1;"/>
<path d="M2.35642 17.4416C2.03962 17.4416 1.75574 17.3902 1.50476 17.2874C1.25379 17.1845 1.05219 17.0323 0.899964 16.8307C0.75185 16.6291 0.673679 16.3863 0.66545 16.1024H1.78865C1.80511 16.2629 1.86065 16.3863 1.95528 16.4727C2.04991 16.555 2.17334 16.5962 2.32556 16.5962C2.48191 16.5962 2.60534 16.5612 2.69585 16.4912C2.78636 16.4172 2.83162 16.3164 2.83162 16.1888C2.83162 16.0819 2.79459 15.9934 2.72054 15.9235C2.65059 15.8535 2.56214 15.7959 2.45516 15.7507C2.35231 15.7054 2.20419 15.654 2.01082 15.5964C1.73105 15.51 1.50271 15.4236 1.32579 15.3372C1.14888 15.2508 0.99665 15.1232 0.869107 14.9546C0.741564 14.7859 0.677793 14.5658 0.677793 14.2942C0.677793 13.891 0.82385 13.5763 1.11596 13.35C1.40808 13.1196 1.78865 13.0044 2.25768 13.0044C2.73494 13.0044 3.11962 13.1196 3.41174 13.35C3.70385 13.5763 3.86019 13.8931 3.88076 14.3004H2.73905C2.73082 14.1605 2.67939 14.0515 2.58476 13.9733C2.49014 13.891 2.36876 13.8499 2.22065 13.8499C2.09311 13.8499 1.99025 13.8848 1.91208 13.9548C1.83391 14.0206 1.79482 14.1173 1.79482 14.2448C1.79482 14.3847 1.86065 14.4938 1.99231 14.5719C2.12396 14.6501 2.32968 14.7344 2.60945 14.825C2.88922 14.9196 3.11551 15.0101 3.28831 15.0965C3.46522 15.1829 3.61745 15.3084 3.74499 15.473C3.87254 15.6375 3.93631 15.8494 3.93631 16.1086C3.93631 16.3555 3.87254 16.5797 3.74499 16.7813C3.62156 16.9829 3.44054 17.1434 3.20191 17.2627C2.96328 17.382 2.68145 17.4416 2.35642 17.4416ZM6.74575 13.9178C7.14895 13.9178 7.46987 14.0494 7.7085 14.3127C7.95124 14.5719 8.07261 14.9299 8.07261 15.3866V17.3984H7.02347V15.5285C7.02347 15.2981 6.96381 15.1191 6.8445 14.9916C6.72518 14.864 6.56472 14.8003 6.36312 14.8003C6.16152 14.8003 6.00107 14.864 5.88175 14.9916C5.76244 15.1191 5.70278 15.2981 5.70278 15.5285V17.3984H4.64747V13.9548H5.70278V14.4115C5.80975 14.2592 5.95375 14.1399 6.13478 14.0535C6.31581 13.963 6.51947 13.9178 6.74575 13.9178ZM8.65783 15.6704C8.65783 15.3166 8.72366 15.006 8.85532 14.7386C8.99109 14.4711 9.17418 14.2654 9.40458 14.1214C9.63498 13.9774 9.89212 13.9054 10.176 13.9054C10.4187 13.9054 10.6306 13.9548 10.8117 14.0535C10.9968 14.1523 11.1387 14.2819 11.2375 14.4423V13.9548H12.2928V17.3984H11.2375V16.9109C11.1346 17.0714 10.9906 17.201 10.8055 17.2997C10.6245 17.3984 10.4126 17.4478 10.1698 17.4478C9.89006 17.4478 9.63498 17.3758 9.40458 17.2318C9.17418 17.0837 8.99109 16.8759 8.85532 16.6085C8.72366 16.337 8.65783 16.0243 8.65783 15.6704ZM11.2375 15.6766C11.2375 15.4133 11.1634 15.2055 11.0153 15.0533C10.8713 14.9011 10.6944 14.825 10.4846 14.825C10.2747 14.825 10.0958 14.9011 9.94766 15.0533C9.80366 15.2014 9.73166 15.4071 9.73166 15.6704C9.73166 15.9338 9.80366 16.1436 9.94766 16.2999C10.0958 16.4522 10.2747 16.5283 10.4846 16.5283C10.6944 16.5283 10.8713 16.4522 11.0153 16.2999C11.1634 16.1477 11.2375 15.9399 11.2375 15.6766ZM14.1733 14.4423C14.2762 14.2819 14.4181 14.1523 14.5991 14.0535C14.7802 13.9548 14.992 13.9054 15.2348 13.9054C15.5187 13.9054 15.7758 13.9774 16.0062 14.1214C16.2366 14.2654 16.4176 14.4711 16.5493 14.7386C16.6851 15.006 16.753 15.3166 16.753 15.6704C16.753 16.0243 16.6851 16.337 16.5493 16.6085C16.4176 16.8759 16.2366 17.0837 16.0062 17.2318C15.7758 17.3758 15.5187 17.4478 15.2348 17.4478C14.9962 17.4478 14.7843 17.3984 14.5991 17.2997C14.4181 17.201 14.2762 17.0734 14.1733 16.9171V19.04H13.118V13.9548H14.1733V14.4423ZM15.6791 15.6704C15.6791 15.4071 15.6051 15.2014 15.457 15.0533C15.313 14.9011 15.134 14.825 14.92 14.825C14.7102 14.825 14.5312 14.9011 14.3831 15.0533C14.2391 15.2055 14.1671 15.4133 14.1671 15.6766C14.1671 15.9399 14.2391 16.1477 14.3831 16.2999C14.5312 16.4522 14.7102 16.5283 14.92 16.5283C15.1299 16.5283 15.3088 16.4522 15.457 16.2999C15.6051 16.1436 15.6791 15.9338 15.6791 15.6704Z" fill="white" style="fill:white;fill-opacity:1;"/>
<path d="M17.1894 15.2261C17.1894 14.7982 17.2819 14.4176 17.4671 14.0844C17.6522 13.747 17.9094 13.4858 18.2385 13.3006C18.5717 13.1114 18.9482 13.0167 19.3679 13.0167C19.8821 13.0167 20.3224 13.1525 20.6885 13.424C21.0547 13.6956 21.2995 14.0659 21.4229 14.5349H20.2627C20.1763 14.3539 20.0529 14.216 19.8924 14.1214C19.7361 14.0268 19.5571 13.9795 19.3555 13.9795C19.0305 13.9795 18.7672 14.0926 18.5656 14.3189C18.364 14.5452 18.2632 14.8476 18.2632 15.2261C18.2632 15.6046 18.364 15.907 18.5656 16.1333C18.7672 16.3596 19.0305 16.4727 19.3555 16.4727C19.5571 16.4727 19.7361 16.4254 19.8924 16.3308C20.0529 16.2362 20.1763 16.0983 20.2627 15.9173H21.4229C21.2995 16.3863 21.0547 16.7566 20.6885 17.0282C20.3224 17.2956 19.8821 17.4293 19.3679 17.4293C18.9482 17.4293 18.5717 17.3367 18.2385 17.1516C17.9094 16.9623 17.6522 16.7011 17.4671 16.3678C17.2819 16.0346 17.1894 15.654 17.1894 15.2261ZM21.9211 15.6704C21.9211 15.3166 21.9869 15.006 22.1186 14.7386C22.2544 14.4711 22.4374 14.2654 22.6678 14.1214C22.8982 13.9774 23.1554 13.9054 23.4393 13.9054C23.682 13.9054 23.8939 13.9548 24.0749 14.0535C24.2601 14.1523 24.402 14.2819 24.5008 14.4423V13.9548H25.5561V17.3984H24.5008V16.9109C24.3979 17.0714 24.2539 17.201 24.0688 17.2997C23.8877 17.3984 23.6758 17.4478 23.4331 17.4478C23.1533 17.4478 22.8982 17.3758 22.6678 17.2318C22.4374 17.0837 22.2544 16.8759 22.1186 16.6085C21.9869 16.337 21.9211 16.0243 21.9211 15.6704ZM24.5008 15.6766C24.5008 15.4133 24.4267 15.2055 24.2786 15.0533C24.1346 14.9011 23.9577 14.825 23.7478 14.825C23.538 14.825 23.359 14.9011 23.2109 15.0533C23.0669 15.2014 22.9949 15.4071 22.9949 15.6704C22.9949 15.9338 23.0669 16.1436 23.2109 16.2999C23.359 16.4522 23.538 16.5283 23.7478 16.5283C23.9577 16.5283 24.1346 16.4522 24.2786 16.2999C24.4267 16.1477 24.5008 15.9399 24.5008 15.6766ZM27.4366 14.5287C27.56 14.3395 27.7143 14.1914 27.8994 14.0844C28.0846 13.9733 28.2903 13.9178 28.5166 13.9178V15.0348H28.2265C27.9632 15.0348 27.7657 15.0924 27.6341 15.2076C27.5024 15.3187 27.4366 15.5162 27.4366 15.8V17.3984H26.3813V13.9548H27.4366V14.5287ZM31.002 16.5036V17.3984H30.4651C30.0825 17.3984 29.7842 17.3059 29.5702 17.1207C29.3563 16.9315 29.2493 16.625 29.2493 16.2012V14.8311H28.8297V13.9548H29.2493V13.1155H30.3046V13.9548H30.9958V14.8311H30.3046V16.2135C30.3046 16.3164 30.3293 16.3904 30.3787 16.4357C30.4281 16.481 30.5104 16.5036 30.6256 16.5036H31.002Z" fill="#198C06" style="fill:#198C06;fill:color(display-p3 0.0975 0.5499 0.0238);fill-opacity:1;"/>
</svg>
